<mxfile host="app.diagrams.net" agent="Mozilla/5.0 (Windows NT 10.0; Win64; x64) AppleWebKit/537.36 (KHTML, like Gecko) Chrome/138.0.0.0 Safari/537.36" version="28.0.4">
  <diagram name="Page-1" id="WLU-mKK_O1FpjmatcDbD">
    <mxGraphModel dx="1737" dy="890" grid="1" gridSize="10" guides="1" tooltips="1" connect="1" arrows="1" fold="1" page="1" pageScale="1" pageWidth="850" pageHeight="1100" math="0" shadow="0">
      <root>
        <mxCell id="0" />
        <mxCell id="1" parent="0" />
        <mxCell id="V-Us8RqWjLm5NdsBhYOH-5" style="edgeStyle=orthogonalEdgeStyle;rounded=0;orthogonalLoop=1;jettySize=auto;html=1;" edge="1" parent="1" source="V-Us8RqWjLm5NdsBhYOH-1" target="V-Us8RqWjLm5NdsBhYOH-4">
          <mxGeometry relative="1" as="geometry" />
        </mxCell>
        <mxCell id="V-Us8RqWjLm5NdsBhYOH-1" value="Client" style="rounded=0;whiteSpace=wrap;html=1;" vertex="1" parent="1">
          <mxGeometry x="40" y="200" width="100" height="200" as="geometry" />
        </mxCell>
        <mxCell id="V-Us8RqWjLm5NdsBhYOH-3" style="edgeStyle=orthogonalEdgeStyle;rounded=0;orthogonalLoop=1;jettySize=auto;html=1;exitX=0.5;exitY=1;exitDx=0;exitDy=0;" edge="1" parent="1" source="V-Us8RqWjLm5NdsBhYOH-1" target="V-Us8RqWjLm5NdsBhYOH-1">
          <mxGeometry relative="1" as="geometry" />
        </mxCell>
        <mxCell id="V-Us8RqWjLm5NdsBhYOH-4" value="LOAD BALANCER" style="outlineConnect=0;dashed=0;verticalLabelPosition=bottom;verticalAlign=top;align=center;html=1;shape=mxgraph.aws3.classic_load_balancer;fillColor=#F58534;gradientColor=none;" vertex="1" parent="1">
          <mxGeometry x="250" y="264" width="69" height="72" as="geometry" />
        </mxCell>
        <mxCell id="V-Us8RqWjLm5NdsBhYOH-17" style="edgeStyle=orthogonalEdgeStyle;rounded=0;orthogonalLoop=1;jettySize=auto;html=1;" edge="1" parent="1" source="V-Us8RqWjLm5NdsBhYOH-6" target="V-Us8RqWjLm5NdsBhYOH-15">
          <mxGeometry relative="1" as="geometry" />
        </mxCell>
        <mxCell id="V-Us8RqWjLm5NdsBhYOH-6" value="TINYURL&amp;nbsp;&lt;div&gt;SERVER&lt;/div&gt;" style="outlineConnect=0;dashed=0;verticalLabelPosition=bottom;verticalAlign=top;align=center;html=1;shape=mxgraph.aws3.ec2;fillColor=#F58534;gradientColor=none;" vertex="1" parent="1">
          <mxGeometry x="810" y="215" width="80" height="170" as="geometry" />
        </mxCell>
        <mxCell id="V-Us8RqWjLm5NdsBhYOH-10" style="edgeStyle=orthogonalEdgeStyle;rounded=0;orthogonalLoop=1;jettySize=auto;html=1;" edge="1" parent="1">
          <mxGeometry relative="1" as="geometry">
            <mxPoint x="319" y="280" as="sourcePoint" />
            <mxPoint x="800" y="280" as="targetPoint" />
          </mxGeometry>
        </mxCell>
        <mxCell id="V-Us8RqWjLm5NdsBhYOH-12" value="" style="outlineConnect=0;dashed=0;verticalLabelPosition=bottom;verticalAlign=top;align=center;html=1;shape=mxgraph.aws3.cache_node;fillColor=#2E73B8;gradientColor=none;" vertex="1" parent="1">
          <mxGeometry x="1220" y="10" width="110" height="80" as="geometry" />
        </mxCell>
        <mxCell id="V-Us8RqWjLm5NdsBhYOH-14" value="" style="endArrow=classic;html=1;rounded=0;exitX=1;exitY=0.5;exitDx=0;exitDy=0;exitPerimeter=0;entryX=0;entryY=0.5;entryDx=0;entryDy=0;entryPerimeter=0;" edge="1" parent="1" source="V-Us8RqWjLm5NdsBhYOH-6">
          <mxGeometry width="50" height="50" relative="1" as="geometry">
            <mxPoint x="1430" y="510" as="sourcePoint" />
            <mxPoint x="1211.25" y="50" as="targetPoint" />
          </mxGeometry>
        </mxCell>
        <mxCell id="V-Us8RqWjLm5NdsBhYOH-15" value="RELATIONAL DATABASE" style="image;html=1;image=img/lib/clip_art/computers/Database_128x128.png" vertex="1" parent="1">
          <mxGeometry x="1237.5" y="256" width="132.5" height="105" as="geometry" />
        </mxCell>
        <mxCell id="V-Us8RqWjLm5NdsBhYOH-52" value="ZOOKEEPER SERVER" style="outlineConnect=0;dashed=0;verticalLabelPosition=bottom;verticalAlign=top;align=center;html=1;shape=mxgraph.aws3.ec2;fillColor=#F58534;gradientColor=none;" vertex="1" parent="1">
          <mxGeometry x="1182.5" y="600" width="83.25" height="160" as="geometry" />
        </mxCell>
        <mxCell id="V-Us8RqWjLm5NdsBhYOH-56" value="" style="endArrow=classic;html=1;rounded=0;" edge="1" parent="1" source="V-Us8RqWjLm5NdsBhYOH-6" target="V-Us8RqWjLm5NdsBhYOH-52">
          <mxGeometry width="50" height="50" relative="1" as="geometry">
            <mxPoint x="1010" y="530" as="sourcePoint" />
            <mxPoint x="1060" y="480" as="targetPoint" />
          </mxGeometry>
        </mxCell>
        <mxCell id="V-Us8RqWjLm5NdsBhYOH-57" value="POST &lt;br&gt;createShortUrl(longUrl)" style="text;html=1;align=center;verticalAlign=middle;whiteSpace=wrap;rounded=0;" vertex="1" parent="1">
          <mxGeometry x="490" y="234" width="135" height="36" as="geometry" />
        </mxCell>
        <mxCell id="V-Us8RqWjLm5NdsBhYOH-58" value="1" style="ellipse;whiteSpace=wrap;html=1;aspect=fixed;" vertex="1" parent="1">
          <mxGeometry x="490" y="219" width="15" height="15" as="geometry" />
        </mxCell>
        <mxCell id="V-Us8RqWjLm5NdsBhYOH-59" value="Calls to zookeeper to get range in which unique ID has to be generated." style="text;html=1;align=center;verticalAlign=middle;whiteSpace=wrap;rounded=0;" vertex="1" parent="1">
          <mxGeometry x="1030" y="450" width="170" height="30" as="geometry" />
        </mxCell>
        <mxCell id="V-Us8RqWjLm5NdsBhYOH-60" value="Every server node is assigned one range and that server will use unique ids from that range only." style="text;html=1;align=center;verticalAlign=middle;whiteSpace=wrap;rounded=0;" vertex="1" parent="1">
          <mxGeometry x="1120" y="810" width="210" height="40" as="geometry" />
        </mxCell>
        <mxCell id="V-Us8RqWjLm5NdsBhYOH-61" value="" style="endArrow=classic;html=1;rounded=0;" edge="1" parent="1">
          <mxGeometry width="50" height="50" relative="1" as="geometry">
            <mxPoint x="1180" y="720" as="sourcePoint" />
            <mxPoint x="880" y="420" as="targetPoint" />
          </mxGeometry>
        </mxCell>
        <mxCell id="V-Us8RqWjLm5NdsBhYOH-62" value="2" style="ellipse;whiteSpace=wrap;html=1;aspect=fixed;" vertex="1" parent="1">
          <mxGeometry x="1020" y="430" width="15" height="15" as="geometry" />
        </mxCell>
        <mxCell id="V-Us8RqWjLm5NdsBhYOH-63" value="1. Check cache for the shortUrl for redirection&lt;br&gt;2. If value is present then return from here.&lt;br&gt;3. else query the DB" style="text;html=1;align=center;verticalAlign=middle;whiteSpace=wrap;rounded=0;" vertex="1" parent="1">
          <mxGeometry x="1097.5" y="130" width="140" height="70" as="geometry" />
        </mxCell>
        <mxCell id="V-Us8RqWjLm5NdsBhYOH-64" value="Every server node generate unique ID inside the range returned by zookeeper and then converts unique ID to BASE62 and save in DB" style="text;html=1;align=center;verticalAlign=middle;whiteSpace=wrap;rounded=0;" vertex="1" parent="1">
          <mxGeometry x="740" y="130" width="230" height="115" as="geometry" />
        </mxCell>
        <mxCell id="V-Us8RqWjLm5NdsBhYOH-31" value="Assets" style="childLayout=tableLayout;recursiveResize=0;strokeColor=#98bf21;fillColor=#A7C942;shadow=1;" vertex="1" parent="1">
          <mxGeometry x="1390" y="250" width="280" height="129" as="geometry" />
        </mxCell>
        <mxCell id="V-Us8RqWjLm5NdsBhYOH-32" style="shape=tableRow;horizontal=0;startSize=0;swimlaneHead=0;swimlaneBody=0;top=0;left=0;bottom=0;right=0;dropTarget=0;collapsible=0;recursiveResize=0;expand=0;fontStyle=0;strokeColor=inherit;fillColor=#ffffff;" vertex="1" parent="V-Us8RqWjLm5NdsBhYOH-31">
          <mxGeometry width="280" height="33" as="geometry" />
        </mxCell>
        <mxCell id="V-Us8RqWjLm5NdsBhYOH-33" value="primary_key" style="connectable=0;recursiveResize=0;strokeColor=inherit;fillColor=#A7C942;align=center;fontStyle=1;fontColor=#FFFFFF;html=1;" vertex="1" parent="V-Us8RqWjLm5NdsBhYOH-32">
          <mxGeometry width="93" height="33" as="geometry">
            <mxRectangle width="93" height="33" as="alternateBounds" />
          </mxGeometry>
        </mxCell>
        <mxCell id="V-Us8RqWjLm5NdsBhYOH-34" value="shortUrl" style="connectable=0;recursiveResize=0;strokeColor=inherit;fillColor=#A7C942;align=center;fontStyle=1;fontColor=#FFFFFF;html=1;" vertex="1" parent="V-Us8RqWjLm5NdsBhYOH-32">
          <mxGeometry x="93" width="94" height="33" as="geometry">
            <mxRectangle width="94" height="33" as="alternateBounds" />
          </mxGeometry>
        </mxCell>
        <mxCell id="V-Us8RqWjLm5NdsBhYOH-35" value="longUrl" style="connectable=0;recursiveResize=0;strokeColor=inherit;fillColor=#A7C942;align=center;fontStyle=1;fontColor=#FFFFFF;html=1;" vertex="1" parent="V-Us8RqWjLm5NdsBhYOH-32">
          <mxGeometry x="187" width="93" height="33" as="geometry">
            <mxRectangle width="93" height="33" as="alternateBounds" />
          </mxGeometry>
        </mxCell>
        <mxCell id="V-Us8RqWjLm5NdsBhYOH-36" value="" style="shape=tableRow;horizontal=0;startSize=0;swimlaneHead=0;swimlaneBody=0;top=0;left=0;bottom=0;right=0;dropTarget=0;collapsible=0;recursiveResize=0;expand=0;fontStyle=0;strokeColor=inherit;fillColor=#ffffff;" vertex="1" parent="V-Us8RqWjLm5NdsBhYOH-31">
          <mxGeometry y="33" width="280" height="32" as="geometry" />
        </mxCell>
        <mxCell id="V-Us8RqWjLm5NdsBhYOH-37" value="Value 1" style="connectable=0;recursiveResize=0;strokeColor=inherit;fillColor=inherit;align=center;whiteSpace=wrap;html=1;" vertex="1" parent="V-Us8RqWjLm5NdsBhYOH-36">
          <mxGeometry width="93" height="32" as="geometry">
            <mxRectangle width="93" height="32" as="alternateBounds" />
          </mxGeometry>
        </mxCell>
        <mxCell id="V-Us8RqWjLm5NdsBhYOH-38" value="Value 2" style="connectable=0;recursiveResize=0;strokeColor=inherit;fillColor=inherit;align=center;whiteSpace=wrap;html=1;" vertex="1" parent="V-Us8RqWjLm5NdsBhYOH-36">
          <mxGeometry x="93" width="94" height="32" as="geometry">
            <mxRectangle width="94" height="32" as="alternateBounds" />
          </mxGeometry>
        </mxCell>
        <mxCell id="V-Us8RqWjLm5NdsBhYOH-39" value="Value 3" style="connectable=0;recursiveResize=0;strokeColor=inherit;fillColor=inherit;align=center;whiteSpace=wrap;html=1;" vertex="1" parent="V-Us8RqWjLm5NdsBhYOH-36">
          <mxGeometry x="187" width="93" height="32" as="geometry">
            <mxRectangle width="93" height="32" as="alternateBounds" />
          </mxGeometry>
        </mxCell>
        <mxCell id="V-Us8RqWjLm5NdsBhYOH-40" value="" style="shape=tableRow;horizontal=0;startSize=0;swimlaneHead=0;swimlaneBody=0;top=0;left=0;bottom=0;right=0;dropTarget=0;collapsible=0;recursiveResize=0;expand=0;fontStyle=1;strokeColor=inherit;fillColor=#EAF2D3;" vertex="1" parent="V-Us8RqWjLm5NdsBhYOH-31">
          <mxGeometry y="65" width="280" height="31" as="geometry" />
        </mxCell>
        <mxCell id="V-Us8RqWjLm5NdsBhYOH-41" value="Value 4" style="connectable=0;recursiveResize=0;strokeColor=inherit;fillColor=inherit;whiteSpace=wrap;html=1;" vertex="1" parent="V-Us8RqWjLm5NdsBhYOH-40">
          <mxGeometry width="93" height="31" as="geometry">
            <mxRectangle width="93" height="31" as="alternateBounds" />
          </mxGeometry>
        </mxCell>
        <mxCell id="V-Us8RqWjLm5NdsBhYOH-42" value="Value 5" style="connectable=0;recursiveResize=0;strokeColor=inherit;fillColor=inherit;whiteSpace=wrap;html=1;" vertex="1" parent="V-Us8RqWjLm5NdsBhYOH-40">
          <mxGeometry x="93" width="94" height="31" as="geometry">
            <mxRectangle width="94" height="31" as="alternateBounds" />
          </mxGeometry>
        </mxCell>
        <mxCell id="V-Us8RqWjLm5NdsBhYOH-43" value="Value 6" style="connectable=0;recursiveResize=0;strokeColor=inherit;fillColor=inherit;whiteSpace=wrap;html=1;" vertex="1" parent="V-Us8RqWjLm5NdsBhYOH-40">
          <mxGeometry x="187" width="93" height="31" as="geometry">
            <mxRectangle width="93" height="31" as="alternateBounds" />
          </mxGeometry>
        </mxCell>
        <mxCell id="V-Us8RqWjLm5NdsBhYOH-44" value="" style="shape=tableRow;horizontal=0;startSize=0;swimlaneHead=0;swimlaneBody=0;top=0;left=0;bottom=0;right=0;dropTarget=0;collapsible=0;recursiveResize=0;expand=0;fontStyle=0;strokeColor=inherit;fillColor=#ffffff;" vertex="1" parent="V-Us8RqWjLm5NdsBhYOH-31">
          <mxGeometry y="96" width="280" height="33" as="geometry" />
        </mxCell>
        <mxCell id="V-Us8RqWjLm5NdsBhYOH-45" value="Value 7" style="connectable=0;recursiveResize=0;strokeColor=inherit;fillColor=inherit;fontStyle=0;align=center;whiteSpace=wrap;html=1;" vertex="1" parent="V-Us8RqWjLm5NdsBhYOH-44">
          <mxGeometry width="93" height="33" as="geometry">
            <mxRectangle width="93" height="33" as="alternateBounds" />
          </mxGeometry>
        </mxCell>
        <mxCell id="V-Us8RqWjLm5NdsBhYOH-46" value="Value 8" style="connectable=0;recursiveResize=0;strokeColor=inherit;fillColor=inherit;fontStyle=0;align=center;whiteSpace=wrap;html=1;" vertex="1" parent="V-Us8RqWjLm5NdsBhYOH-44">
          <mxGeometry x="93" width="94" height="33" as="geometry">
            <mxRectangle width="94" height="33" as="alternateBounds" />
          </mxGeometry>
        </mxCell>
        <mxCell id="V-Us8RqWjLm5NdsBhYOH-47" value="Value 9" style="connectable=0;recursiveResize=0;strokeColor=inherit;fillColor=inherit;fontStyle=0;align=center;whiteSpace=wrap;html=1;" vertex="1" parent="V-Us8RqWjLm5NdsBhYOH-44">
          <mxGeometry x="187" width="93" height="33" as="geometry">
            <mxRectangle width="93" height="33" as="alternateBounds" />
          </mxGeometry>
        </mxCell>
        <mxCell id="V-Us8RqWjLm5NdsBhYOH-66" value="returns then range for server node" style="text;html=1;align=center;verticalAlign=middle;whiteSpace=wrap;rounded=0;" vertex="1" parent="1">
          <mxGeometry x="960" y="630" width="120" height="35" as="geometry" />
        </mxCell>
        <mxCell id="V-Us8RqWjLm5NdsBhYOH-67" value="save in DB" style="text;html=1;align=center;verticalAlign=middle;whiteSpace=wrap;rounded=0;" vertex="1" parent="1">
          <mxGeometry x="1090" y="270" width="60" height="30" as="geometry" />
        </mxCell>
        <mxCell id="V-Us8RqWjLm5NdsBhYOH-68" value="3" style="ellipse;whiteSpace=wrap;html=1;aspect=fixed;" vertex="1" parent="1">
          <mxGeometry x="740" y="140" width="15" height="15" as="geometry" />
        </mxCell>
        <mxCell id="V-Us8RqWjLm5NdsBhYOH-69" value="4" style="ellipse;whiteSpace=wrap;html=1;aspect=fixed;" vertex="1" parent="1">
          <mxGeometry x="1090" y="255" width="15" height="15" as="geometry" />
        </mxCell>
        <mxCell id="V-Us8RqWjLm5NdsBhYOH-70" value="" style="endArrow=classic;html=1;rounded=0;" edge="1" parent="1">
          <mxGeometry width="50" height="50" relative="1" as="geometry">
            <mxPoint x="320" y="320" as="sourcePoint" />
            <mxPoint x="800" y="320" as="targetPoint" />
          </mxGeometry>
        </mxCell>
        <mxCell id="V-Us8RqWjLm5NdsBhYOH-71" value="GET&amp;nbsp;&lt;br&gt;getLongUrl(shortUrl)" style="text;html=1;align=center;verticalAlign=middle;whiteSpace=wrap;rounded=0;" vertex="1" parent="1">
          <mxGeometry x="490" y="336" width="120" height="34" as="geometry" />
        </mxCell>
      </root>
    </mxGraphModel>
  </diagram>
</mxfile>
